<svg  xmlns="http://www.w3.org/2000/svg" xmlns:xlink="http://www.w3.org/1999/xlink" width="951" height="200" viewBox="0 0 975 224"><path transform="translate(0 100)" d="M90.6,-51.3L90.6,-29.5Q90.6,-23.7 88.05,-21.1Q85.5,-18.5 80,-18.8L54.3,-18.8L54.3,4.8Q54.3,9.6 50,9.6Q45.7,9.6 45.7,4.8L45.7,-18.8L21,-18.8Q9.8,-18.2 10.4,-29.5L10.4,-51.3Q10.4,-57.2 12.9,-59.8Q15.4,-62.4 21,-62L45.7,-62L45.7,-74.8Q45.7,-79.7 50,-79.7Q54.3,-79.7 54.3,-74.8L54.3,-62L80,-62Q91.2,-62.7 90.6,-51.3ZM19.95,-27.8Q21.1,-26.7 24.4,-26.7L45.7,-26.7L45.7,-54.2L24.4,-54.2Q21.1,-54.2 19.95,-53.1Q18.8,-52 18.8,-48.5L18.8,-32.2Q18.8,-28.9 19.95,-27.8ZM76.5,-26.7Q79.8,-26.7 80.9,-27.8Q82,-28.9 82,-32.2L82,-48.5Q82,-52 80.9,-53.1Q79.8,-54.2 76.5,-54.2L54.3,-54.2L54.3,-26.7L76.5,-26.7Z"></path><path transform="translate(100 100)" d="M5.7,4Q5.7,2.3 7.1,1.2Q8.5,0.1 11.5,-0.6Q30.8,-4.7 43.8,-14.7L43.8,-14.9Q34.1,-24 29.2,-34.7Q24.1,-45.7 24.1,-49Q24.1,-52.4 28.3,-52.4Q31.6,-52.4 32.8,-48.4Q37.7,-32.2 49.9,-20.3L50.1,-20.3Q63.4,-34.6 66.8,-56.7L11.8,-56.7Q6.7,-56.7 6.7,-60.6Q6.7,-64.6 11.8,-64.6L45.2,-64.6L45.2,-74Q45.2,-79.5 49.5,-79.5Q51.8,-79.5 52.8,-78.2Q53.8,-76.9 53.8,-74L53.8,-64.6L88.2,-64.6Q93.2,-64.6 93.2,-60.6Q93.2,-56.7 88.2,-56.7L75.8,-56.7Q70.2,-30.7 56.2,-15.6L56.2,-15.4Q69.8,-5.6 89,-1.4Q94.3,-0.2 94.3,3.3Q94.3,8.2 90,8.2Q89.4,8.2 88.3,7.95Q87.2,7.7 86.4,7.4Q64.1,1.4 50.1,-9.8L49.9,-9.8Q41.5,-2.3 28.7,3.2Q16.4,8.6 9.9,8.6Q5.7,8.6 5.7,4Z"></path><path transform="translate(200 100)" d="M10.4,4.3L10.4,-65.4Q10.4,-70.5 12.65,-72.85Q14.9,-75.2 19.7,-74.9L81.3,-74.9Q86.3,-74.9 88.6,-72.6Q90.9,-70.3 90.6,-65.4L90.6,-1.9Q91.3,9.3 80.2,8.7L72.4,8.7Q67.7,8.7 67.7,4.6Q67.7,0.6 72.4,0.6L78.7,0.6Q82.8,0.6 82.8,-3.7L82.8,-63Q82.8,-67.4 78.4,-67.4L22.6,-67.4Q18.2,-67.4 18.2,-63L18.2,4.3Q18.2,9 14.3,9Q10.4,9 10.4,4.3ZM23,-11.1Q29.5,-22 33.2,-33.1Q29.5,-40.3 25.3,-47.3Q21.2,-54 21.2,-54.9Q21.2,-58 24.7,-58Q26.8,-58 28.6,-54.6L33.3,-47.2L36,-42.5Q37.4,-47.5 38.1,-53.7Q38.9,-59.6 39.6,-61.8Q40.4,-63.6 42.6,-63.6Q46,-63.6 46,-60.1Q46,-56.8 44.1,-48.5Q42.1,-39.3 40.7,-34L43.1,-29.2L44.9,-25.4L48.2,-18.8Q49.4,-16 49.4,-15.1Q49.4,-11.1 45.4,-11.1Q42.8,-11.1 40.9,-16.6Q39.4,-20.7 37.7,-24.2L37.5,-24.2Q28.9,-2.4 25,-2.4Q21.2,-2.4 21.2,-6.6Q21.2,-8 23,-11.1ZM48.6,-7.7Q55.5,-16.4 61.4,-31.8Q57,-39.7 52.4,-46.7Q47.9,-53.6 47.9,-54.7Q47.9,-57.9 51.5,-57.9Q54,-57.9 64.4,-41.2L64.6,-41.3Q66.5,-47.7 68.2,-59.2Q68.8,-63.7 71.9,-63.7Q75.6,-63.7 75.6,-60.2Q75.6,-58.1 73.1,-47.5Q71.2,-38.8 69.3,-32.8L73.8,-24.6Q79.1,-14.9 79.1,-12.3Q79.1,-8.3 75.3,-8.3Q73.7,-8.3 72.6,-9.8Q71.5,-11.3 69.3,-16.3L65.9,-23.5Q56.5,-0.4 50.9,-0.4Q47.2,-0.4 47.2,-4.4Q47.2,-6 48.6,-7.7Z"></path><path transform="translate(300 100)" d="M8.45,-45.9Q7.5,-47 7.5,-49.5L7.5,-56.9Q7.5,-63 9.75,-65.75Q12,-68.5 17,-68.5L45.6,-68.5L45.6,-74.4Q45.6,-77 46.65,-78.2Q47.7,-79.4 50,-79.4Q52.3,-79.4 53.3,-78.2Q54.3,-77 54.3,-74.4L54.3,-68.5L82.9,-68.5Q87.9,-68.5 90.15,-65.75Q92.4,-63 92.4,-56.9L92.4,-49.5Q92.4,-47 91.45,-45.9Q90.5,-44.8 88.4,-44.8Q86.4,-44.8 85.45,-45.9Q84.5,-47 84.5,-49.5L84.5,-56.3Q84.5,-58.8 83.35,-59.9Q82.2,-61 79.6,-61L20.3,-61Q17.8,-61 16.65,-59.9Q15.5,-58.8 15.5,-56.3L15.5,-49.5Q15.5,-47 14.55,-45.9Q13.6,-44.8 11.5,-44.8Q9.4,-44.8 8.45,-45.9ZM7.7,-25.5Q8.8,-26.4 11.3,-26.4L46.9,-26.4L46.9,-30.6Q46.9,-34.5 48.9,-36.5Q49.3,-36.9 50,-37.3Q56.5,-40.5 56.8,-40.6Q57.5,-40.9 58.85,-41.55Q60.2,-42.2 63,-43.6Q64.5,-44.3 64.5,-44.7Q64.5,-45.2 63.8,-45.2L23.4,-45.2Q21.4,-45.2 20.45,-46Q19.5,-46.8 19.5,-48.7Q19.5,-50.6 20.45,-51.4Q21.4,-52.2 23.4,-52.2L73.3,-52.2Q77,-52.2 78.7,-51.25Q80.4,-50.3 80.4,-48.3Q80.4,-45.5 77.1,-43.8Q63.1,-36.8 57.6,-33.4Q54.9,-31.7 54.9,-29.7L54.9,-26.4L88.7,-26.4Q91.2,-26.4 92.3,-25.5Q93.4,-24.6 93.4,-22.7Q93.4,-20.8 92.3,-19.9Q91.2,-19 88.7,-19L54.9,-19L54.9,-2.1Q54.9,3.7 52.3,6.35Q49.7,9 43.9,9L37.1,9Q34.7,9 33.6,8.05Q32.5,7.1 32.5,4.9Q32.5,2.7 33.6,1.7Q34.7,0.7 37.1,0.7L43.1,0.7Q45.1,0.7 46,-0.2Q46.9,-1.1 46.9,-3.1L46.9,-19L11.3,-19Q8.8,-19 7.7,-19.9Q6.6,-20.8 6.6,-22.7Q6.6,-24.6 7.7,-25.5Z"></path><path transform="translate(400 100)" d="M61.9,-39.8L43.2,-39.8Q38.5,-39.8 38.5,-43.9Q38.5,-48 43.2,-48L61.9,-48L61.9,-74.3Q61.9,-76.8 63,-78.1Q64.1,-79.4 66.2,-79.4Q70.4,-79.4 70.4,-74.3L70.4,-48L89.7,-48Q94.4,-48 94.4,-43.9Q94.4,-39.8 89.7,-39.8L70.4,-39.8L70.4,4.4Q70.4,9.4 66.2,9.4Q61.9,9.4 61.9,4.4L61.9,-39.8ZM9.7,-50.6L23,-50.6Q31.2,-50.6 31.2,-41.7L31.2,-6.5L36.3,-9.2Q39.5,-10.5 42,-12Q42.8,-12.5 43.9,-12.5Q47.2,-12.5 47.2,-9.3Q47.2,-7.9 46,-6.7Q44.5,-5.5 42.9,-4.5L38.9,-2.2L35.2,-0.1L26.8,4.6Q22.8,6.8 20.4,6.8Q16.9,6.8 16.9,2.7Q16.9,0.2 20.2,-1.5L23.5,-3L23.5,-39.2Q23.5,-42.4 20.2,-42.4L9.7,-42.4Q5.8,-42.4 5.8,-46.5Q5.8,-50.6 9.7,-50.6ZM17.7,-78.2Q19.4,-78.2 22.8,-75.1Q28.2,-69.7 31.3,-66.1Q33.2,-63.9 33.2,-62Q33.2,-58 29.1,-58Q27.4,-58 25.7,-60.3Q23.1,-63.5 20.75,-66.25Q18.4,-69 16.4,-70.8Q14.2,-72.9 14.2,-74.5Q14.2,-78.2 17.7,-78.2Z"></path><path transform="translate(500 100)" d="M79.2,8.8L72.7,8.8Q67.8,8.8 67.8,4.6Q67.8,0.4 72.7,0.4L77.1,0.4Q81.7,0.4 81.7,-4.2L81.7,-73.3Q81.7,-78.1 85.7,-78.1Q89.6,-78.1 89.6,-73.3L89.6,-1.9Q90.4,9.4 79.2,8.8ZM9.8,-52.9L20.9,-53.9Q20,-63.1 19.7,-72Q19.6,-77.8 23.8,-77.8Q25.6,-77.8 26.65,-76.65Q27.7,-75.5 27.8,-73.2Q28.1,-67.6 28.2,-64.8L28.8,-54.6Q34,-55 48.1,-56.5L54.1,-57.1Q56.2,-57.3 57.3,-56.4Q58.4,-55.5 58.4,-53.5Q58.4,-51.9 57.25,-50.8Q56.1,-49.7 54,-49.5L29.7,-47.1L29.5,-47.1Q31,-34.1 35.4,-22.6Q40,-28.9 44.8,-39.3Q46.5,-42.8 49.2,-42.8Q52.7,-42.8 52.7,-39.2Q52.7,-36.4 48.4,-29Q43.6,-20.3 39,-14.7Q47.2,-2.2 53.3,-2.2Q55.8,-2.2 55.3,-7.9Q55.3,-8.6 55.1,-10.4L55,-12.8Q55,-16.9 58.1,-16.9Q60.1,-16.9 60.95,-15.95Q61.8,-15 62,-12.8Q62.5,-8.1 62.5,-4.9Q62.5,6.8 56.3,7.3Q50.3,7.8 44.7,3.55Q39.1,-0.7 33.7,-8.8Q29.5,-4.5 21.7,1.3Q14.4,6.5 10.6,6.5Q6.9,6.5 6.9,2.1Q6.9,0.1 8.8,-1.5L13.7,-3.7Q21.8,-7.5 29.7,-15.7Q24.3,-27 21.8,-46.5L18.4,-46.1Q10.9,-45.3 9.6,-45.3Q7.6,-45.3 6.75,-46.2Q5.9,-47.1 5.9,-49.1Q5.9,-52.6 9.8,-52.9ZM36.2,-74.75Q37.3,-75.7 38.6,-75.7Q40.5,-75.7 44.2,-72.3Q47.3,-69.5 48.4,-68.05Q49.5,-66.6 49.5,-64.9Q49.5,-63.5 48.55,-62.55Q47.6,-61.6 46.2,-61.6Q44.5,-61.6 42.5,-63.7L39.6,-66.3L37.2,-68.7Q35.1,-70.8 35.1,-72.8Q35.1,-73.8 36.2,-74.75ZM63.6,-67.2Q63.6,-72 67.4,-72Q71.4,-72 71.4,-67.2L71.4,-19.5Q71.4,-14.7 67.5,-14.7Q63.6,-14.7 63.6,-19.5L63.6,-67.2Z"></path><path transform="translate(0 200)" d="M26.5,-0.75Q25.2,-2.1 25.2,-3.9L25.2,-59.8L5.4,-59.8Q3.6,-59.8 2.4,-61Q1.2,-62.2 1.2,-64Q1.2,-65.8 2.4,-67.05Q3.6,-68.3 5.4,-68.3L54,-68.3Q55.8,-68.3 57.05,-67Q58.3,-65.7 58.3,-64Q58.3,-62.2 57.05,-61Q55.8,-59.8 54,-59.8L34.3,-59.8L34.3,-3.9Q34.3,-2.1 32.9,-0.75Q31.5,0.6 29.7,0.6Q27.8,0.6 26.5,-0.75Z"></path><path transform="translate(58 200)" d="M8.95,-0.75Q7.6,-2.1 7.6,-3.9L7.6,-67.3Q7.6,-69.1 8.95,-70.5Q10.3,-71.9 12.1,-71.9Q14,-71.9 15.35,-70.5Q16.7,-69.1 16.7,-67.3L16.7,-42.1Q20.8,-46.5 25.15,-48.7Q29.5,-50.9 34.8,-50.9Q40.1,-50.9 44.2,-48.3Q48.1,-45.8 50.2,-41.4Q52.3,-37 52.3,-31.6L52.3,-3.9Q52.3,-2.1 50.95,-0.75Q49.6,0.6 47.8,0.6Q45.9,0.6 44.6,-0.75Q43.3,-2.1 43.3,-3.9L43.3,-30.7Q43.3,-42.5 32.6,-42.5Q28,-42.5 24.25,-40.2Q20.5,-37.9 16.7,-33.2L16.7,-3.9Q16.7,-2.1 15.35,-0.75Q14,0.6 12.1,0.6Q10.3,0.6 8.95,-0.75Z"></path><path transform="translate(117 200)" d="M11.3,-5.75Q4.6,-12.6 4.6,-24.9Q4.6,-31.7 7.1,-37.7Q9.9,-43.9 15.25,-47.4Q20.6,-50.9 28,-50.9Q35.4,-50.9 40.6,-47.6Q45.7,-44.2 48.55,-38.6Q51.4,-33 51.4,-26.2Q51.4,-24.3 50.1,-23Q48.8,-21.7 46.8,-21.7L13.8,-21.7Q14.6,-14.7 18.95,-11.05Q23.3,-7.4 30.8,-7.4Q34.6,-7.4 37.65,-8.15Q40.7,-8.9 43.9,-10.4Q44.6,-10.8 45.7,-10.8Q47.3,-10.8 48.5,-9.7Q49.7,-8.6 49.7,-6.9Q49.7,-4.7 47.1,-3.2Q42.7,-0.9 38.95,0.1Q35.2,1.1 30,1.1Q18,1.1 11.3,-5.75ZM41.1,-29.1Q42.4,-29.1 42.3,-30.4Q41.8,-34.4 39.9,-36.9Q37.8,-39.9 34.65,-41.55Q31.5,-43.2 28,-43.2Q25,-43.2 21.5,-41.7Q18.1,-40 16.1,-36.75Q14.1,-33.5 13.8,-29.1L41.1,-29.1Z"></path><path transform="translate(172 200)" d=""></path><path transform="translate(201 200)" d="M10.7,-0.75Q9.4,-2.1 9.4,-3.9L9.4,-63.7Q9.4,-65.5 10.75,-66.9Q12.1,-68.3 13.9,-68.3L36.1,-68.3Q45.2,-68.3 51.3,-65.1Q56.7,-62.2 59.5,-57.45Q62.3,-52.7 62.3,-46.5Q62.3,-40.6 59.8,-35.9Q57,-30.7 50.95,-27.7Q44.9,-24.7 36.1,-24.7L18.5,-24.7L18.5,-3.9Q18.5,-2.1 17.1,-0.75Q15.7,0.6 13.9,0.6Q12,0.6 10.7,-0.75ZM35.3,-33.3Q44.1,-33.3 48.65,-36.65Q53.2,-40 53.2,-46.5Q53.2,-52.9 48.6,-56.3Q44,-59.7 35.3,-59.7L19.6,-59.7Q18.5,-59.7 18.5,-58.5L18.5,-33.3L35.3,-33.3Z"></path><path transform="translate(266 200)" d="M8.95,-0.75Q7.6,-2.1 7.6,-3.9L7.6,-45.8Q7.6,-47.7 8.95,-49.05Q10.3,-50.4 12.1,-50.4Q14,-50.4 15.35,-49.05Q16.7,-47.7 16.7,-45.8L16.7,-41.9Q23.5,-50.9 31.9,-50.9L32.4,-50.9Q34.2,-50.9 35.5,-49.55Q36.8,-48.2 36.8,-46.4Q36.8,-44.5 35.5,-43.3Q34.2,-42.1 32.2,-42.1L31.7,-42.1Q27.1,-42.1 23.25,-39.9Q19.4,-37.7 16.7,-33.6L16.7,-3.9Q16.7,-2.1 15.35,-0.75Q14,0.6 12.1,0.6Q10.3,0.6 8.95,-0.75Z"></path><path transform="translate(302 200)" d="M16.5,-2.1Q10.8,-5.5 7.7,-11.45Q4.6,-17.4 4.6,-24.9Q4.6,-32.6 7.7,-38.5Q10.8,-44.4 16.55,-47.65Q22.3,-50.9 29.7,-50.9Q37,-50.9 42.8,-47.7Q48.5,-44.3 51.65,-38.35Q54.8,-32.4 54.8,-24.9Q54.8,-17.2 51.7,-11.4Q48.4,-5.4 42.7,-2.15Q37,1.1 29.7,1.1Q22.3,1.1 16.5,-2.1ZM16,-14.9Q18.2,-11.1 21.7,-9.15Q25.2,-7.2 29.7,-7.2Q33.7,-7.2 37.4,-9.1Q41.3,-11 43.5,-15.1Q45.7,-19.2 45.7,-25Q45.7,-31.2 43.4,-35Q41.2,-38.7 37.65,-40.65Q34.1,-42.6 29.7,-42.6Q25.8,-42.6 22,-40.8Q18.1,-38.9 15.9,-34.85Q13.7,-30.8 13.7,-25Q13.7,-18.9 16,-14.9Z"></path><path transform="translate(361 200)" d="M8.85,-61.4Q7.3,-62.9 7.3,-64.9L7.3,-65.3Q7.3,-67.4 8.85,-68.9Q10.4,-70.4 12.4,-70.4L13,-70.4Q15,-70.4 16.55,-68.9Q18.1,-67.4 18.1,-65.3L18.1,-64.9Q18.1,-62.9 16.55,-61.4Q15,-59.9 13,-59.9L12.4,-59.9Q10.4,-59.9 8.85,-61.4ZM-3.35,16.4Q-2.2,15.2 -0.7,15.2L0.5,15.4L0.8,15.4Q1.2,15.5 2.2,15.5Q5.5,15.5 6.8,14.35Q8.1,13.2 8.1,9.9L8.1,-45.7Q8.1,-47.6 9.4,-48.95Q10.7,-50.3 12.6,-50.3Q14.6,-50.3 15.9,-49Q17.2,-47.7 17.2,-45.7L17.2,10.1Q17.2,16.6 13.9,20.05Q10.6,23.5 4.3,23.5Q1,23.5 -1.9,22.7Q-3.1,22.3 -3.8,21.3Q-4.5,20.3 -4.5,19Q-4.5,17.6 -3.35,16.4Z"></path><path transform="translate(386 200)" d="M11.3,-5.75Q4.6,-12.6 4.6,-24.9Q4.6,-31.7 7.1,-37.7Q9.9,-43.9 15.25,-47.4Q20.6,-50.9 28,-50.9Q35.4,-50.9 40.6,-47.6Q45.7,-44.2 48.55,-38.6Q51.4,-33 51.4,-26.2Q51.4,-24.3 50.1,-23Q48.8,-21.7 46.8,-21.7L13.8,-21.7Q14.6,-14.7 18.95,-11.05Q23.3,-7.4 30.8,-7.4Q34.6,-7.4 37.65,-8.15Q40.7,-8.9 43.9,-10.4Q44.6,-10.8 45.7,-10.8Q47.3,-10.8 48.5,-9.7Q49.7,-8.6 49.7,-6.9Q49.7,-4.7 47.1,-3.2Q42.7,-0.9 38.95,0.1Q35.2,1.1 30,1.1Q18,1.1 11.3,-5.75ZM41.1,-29.1Q42.4,-29.1 42.3,-30.4Q41.8,-34.4 39.9,-36.9Q37.8,-39.9 34.65,-41.55Q31.5,-43.2 28,-43.2Q25,-43.2 21.5,-41.7Q18.1,-40 16.1,-36.75Q14.1,-33.5 13.8,-29.1L41.1,-29.1Z"></path><path transform="translate(441 200)" d="M17.8,-2.1Q11.5,-5.3 8.05,-11.25Q4.6,-17.2 4.6,-24.9Q4.6,-32.8 8.2,-38.8Q11.7,-44.5 17.65,-47.7Q23.6,-50.9 30.8,-50.9Q35.3,-50.9 39.05,-49.7Q42.8,-48.5 46.8,-46.2Q48.7,-44.9 48.7,-42.7Q48.7,-41.2 47.55,-39.95Q46.4,-38.7 44.9,-38.7Q43.9,-38.7 42.8,-39.3Q39.3,-41.1 37.05,-41.75Q34.8,-42.4 31.5,-42.4Q23.3,-42.4 18.5,-37.65Q13.7,-32.9 13.7,-24.9Q13.7,-16.9 18.5,-12.15Q23.3,-7.4 31.5,-7.4Q34.8,-7.4 37.05,-8.05Q39.3,-8.7 42.8,-10.5Q43.9,-11.1 44.9,-11.1Q46.4,-11.1 47.55,-9.85Q48.7,-8.6 48.7,-7.1Q48.7,-4.9 46.8,-3.6Q42.8,-1.3 39.05,-0.1Q35.3,1.1 30.8,1.1Q23.9,1.1 17.8,-2.1Z"></path><path transform="translate(493 200)" d="M34.3,-6.75Q35.4,-5.7 35.4,-4.2Q35.4,-2.1 33,-0.7Q29.3,1.1 24.9,1.1Q10.5,1.1 10.5,-11.9L10.5,-41.6L5.7,-41.6Q3.8,-41.6 2.8,-42.65Q1.8,-43.7 1.8,-45.5Q1.8,-47.4 2.8,-48.4Q3.8,-49.4 5.7,-49.4L10.5,-49.4L10.5,-56.3Q10.5,-58.6 11.7,-59.75Q12.9,-60.9 15.1,-60.9Q17.3,-60.9 18.45,-59.7Q19.6,-58.5 19.6,-56.3L19.6,-49.4L30.6,-49.4Q32.2,-49.4 33.35,-48.3Q34.5,-47.2 34.5,-45.5Q34.5,-43.9 33.35,-42.75Q32.2,-41.6 30.6,-41.6L19.6,-41.6L19.6,-12.7Q19.6,-9.5 21.15,-8.2Q22.7,-6.9 25.9,-6.9Q27.9,-6.9 29.8,-7.5Q30,-7.5 30.1,-7.6L31.7,-7.8Q33.2,-7.8 34.3,-6.75Z"></path><path transform="translate(530 200)" d=""></path><path transform="translate(559 200)" d="M10.7,-0.75Q9.4,-2.1 9.4,-3.9L9.4,-63.7Q9.4,-65.5 10.75,-66.9Q12.1,-68.3 13.9,-68.3L51.9,-68.3Q53.6,-68.3 54.9,-67Q56.2,-65.7 56.2,-64Q56.2,-62.2 54.95,-61Q53.7,-59.8 51.9,-59.8L19.6,-59.8Q18.5,-59.8 18.5,-58.6L18.5,-38.4L48.4,-38.4Q50.2,-38.4 51.45,-37.1Q52.7,-35.8 52.7,-34.1Q52.7,-32.3 51.45,-31.1Q50.2,-29.9 48.4,-29.9L18.5,-29.9L18.5,-3.9Q18.5,-2.1 17.1,-0.75Q15.7,0.6 13.9,0.6Q12,0.6 10.7,-0.75Z"></path><path transform="translate(614 200)" d="M16.5,-2.1Q10.8,-5.5 7.7,-11.45Q4.6,-17.4 4.6,-24.9Q4.6,-32.6 7.7,-38.5Q10.8,-44.4 16.55,-47.65Q22.3,-50.9 29.7,-50.9Q37,-50.9 42.8,-47.7Q48.5,-44.3 51.65,-38.35Q54.8,-32.4 54.8,-24.9Q54.8,-17.2 51.7,-11.4Q48.4,-5.4 42.7,-2.15Q37,1.1 29.7,1.1Q22.3,1.1 16.5,-2.1ZM16,-14.9Q18.2,-11.1 21.7,-9.15Q25.2,-7.2 29.7,-7.2Q33.7,-7.2 37.4,-9.1Q41.3,-11 43.5,-15.1Q45.7,-19.2 45.7,-25Q45.7,-31.2 43.4,-35Q41.2,-38.7 37.65,-40.65Q34.1,-42.6 29.7,-42.6Q25.8,-42.6 22,-40.8Q18.1,-38.9 15.9,-34.85Q13.7,-30.8 13.7,-25Q13.7,-18.9 16,-14.9Z"></path><path transform="translate(673 200)" d="M8.95,-0.75Q7.6,-2.1 7.6,-3.9L7.6,-45.8Q7.6,-47.7 8.95,-49.05Q10.3,-50.4 12.1,-50.4Q14,-50.4 15.35,-49.05Q16.7,-47.7 16.7,-45.8L16.7,-41.9Q23.5,-50.9 31.9,-50.9L32.4,-50.9Q34.2,-50.9 35.5,-49.55Q36.8,-48.2 36.8,-46.4Q36.8,-44.5 35.5,-43.3Q34.2,-42.1 32.2,-42.1L31.7,-42.1Q27.1,-42.1 23.25,-39.9Q19.4,-37.7 16.7,-33.6L16.7,-3.9Q16.7,-2.1 15.35,-0.75Q14,0.6 12.1,0.6Q10.3,0.6 8.95,-0.75Z"></path><path transform="translate(710 200)" d=""></path><path transform="translate(739 200)" d="M24.4,-0.6Q22.9,-1.8 22.1,-3.9L2.9,-62.7Q2.6,-63.9 2.6,-64.6Q2.6,-66.3 3.9,-67.55Q5.2,-68.8 7,-68.8Q8.6,-68.8 9.8,-67.8Q11,-66.8 11.5,-65.1L27.1,-13.9Q27.4,-13.1 27.8,-13.1Q28.2,-13.1 28.5,-13.9L44.2,-64.9Q44.7,-66.7 46.15,-67.75Q47.6,-68.8 49.4,-68.8Q51.2,-68.8 52.65,-67.75Q54.1,-66.7 54.6,-64.9L70.3,-13.9Q70.6,-13.1 71,-13.1Q71.4,-13.1 71.7,-13.9L87.3,-65.1Q87.8,-66.8 89,-67.8Q90.2,-68.8 91.8,-68.8Q93.7,-68.8 94.95,-67.55Q96.2,-66.3 96.2,-64.6Q96.2,-63.9 95.9,-62.7L76.8,-3.9Q76,-1.8 74.45,-0.6Q72.9,0.6 70.9,0.6Q68.9,0.6 67.25,-0.7Q65.6,-2 65,-3.9L50.1,-51.2Q49.8,-52 49.4,-52Q49,-52 48.7,-51.2L33.8,-3.9Q33.2,-2 31.55,-0.7Q29.9,0.6 27.9,0.6Q25.9,0.6 24.4,-0.6Z"></path><path transform="translate(834 200)" d="M11.3,-5.75Q4.6,-12.6 4.6,-24.9Q4.6,-31.7 7.1,-37.7Q9.9,-43.9 15.25,-47.4Q20.6,-50.9 28,-50.9Q35.4,-50.9 40.6,-47.6Q45.7,-44.2 48.55,-38.6Q51.4,-33 51.4,-26.2Q51.4,-24.3 50.1,-23Q48.8,-21.7 46.8,-21.7L13.8,-21.7Q14.6,-14.7 18.95,-11.05Q23.3,-7.4 30.8,-7.4Q34.6,-7.4 37.65,-8.15Q40.7,-8.9 43.9,-10.4Q44.6,-10.8 45.7,-10.8Q47.3,-10.8 48.5,-9.7Q49.7,-8.6 49.7,-6.9Q49.7,-4.7 47.1,-3.2Q42.7,-0.9 38.95,0.1Q35.2,1.1 30,1.1Q18,1.1 11.3,-5.75ZM41.1,-29.1Q42.4,-29.1 42.3,-30.4Q41.8,-34.4 39.9,-36.9Q37.8,-39.9 34.65,-41.55Q31.5,-43.2 28,-43.2Q25,-43.2 21.5,-41.7Q18.1,-40 16.1,-36.75Q14.1,-33.5 13.8,-29.1L41.1,-29.1Z"></path><path transform="translate(889 200)" d="M16.7,-6.3L16.7,-3.9Q16.7,-2.1 15.35,-0.75Q14,0.6 12.1,0.6Q10.3,0.6 8.95,-0.75Q7.6,-2.1 7.6,-3.9L7.6,-67.3Q7.6,-69.1 8.95,-70.5Q10.3,-71.9 12.1,-71.9Q14.1,-71.9 15.4,-70.55Q16.7,-69.2 16.7,-67.3L16.7,-43.6Q23.7,-50.9 33.3,-50.9Q39.6,-50.9 44.8,-47.9Q50.5,-44.7 53.75,-38.65Q57,-32.6 57,-24.9Q57,-17 53.7,-11.1Q50.4,-5.3 45,-2.1Q39.6,1.1 33.3,1.1Q23.8,1.1 16.7,-6.3ZM23.8,-9.3Q27.8,-7.4 32,-7.4Q39.5,-7.4 43.7,-12.05Q47.9,-16.7 47.9,-24.9Q47.9,-33.1 43.7,-37.75Q39.5,-42.4 32,-42.4Q27.8,-42.4 23.8,-40.5Q19.8,-38.6 16.7,-35.2L16.7,-14.6Q19.8,-11.2 23.8,-9.3Z"></path></svg>